<?xml version="1.0" encoding="UTF-8"?>
<svg version="1.1" xmlns="http://www.w3.org/2000/svg" width="216" height="197">
<path d="M0 0 C1.859375 0.54296875 1.859375 0.54296875 4 2 C5.00243152 4.51536057 5.6747344 6.69450888 6.25 9.3125 C6.41693359 10.05943115 6.58386719 10.8063623 6.75585938 11.57592773 C10.8814689 32.07136648 8.0538895 51.5280202 -3.35546875 69.0859375 C-5.61472232 72.38097193 -8.06976559 75.28681999 -11 78 C-6.7476422 77.74986131 -4.52435219 77.43113402 -1.1875 74.6875 C0.61655425 72.4710905 1.92947789 70.62764517 3 68 C6.11257025 73.14250737 8.01876704 76.82816711 7 83 C4.21026391 87.01024563 1.24561444 88.82483907 -3.56640625 89.7890625 C-11.81662705 90.50416992 -20.03181714 89.0258092 -28 87 C-28 87.66 -28 88.32 -28 89 C-43.74487472 94.55580866 -43.74487472 94.55580866 -51 95 C-51 93.68 -51 92.36 -51 91 C-52.50046875 91.24556641 -52.50046875 91.24556641 -54.03125 91.49609375 C-60.81890654 92.34455082 -67.67233208 92.10499253 -74.5 92.0625 C-75.90885258 92.05747533 -77.31770689 92.05291413 -78.7265625 92.04882812 C-82.15108638 92.0371003 -85.57552047 92.02068691 -89 92 C-89.33 90.68 -89.66 89.36 -90 88 C-87.36 87.67 -84.72 87.34 -82 87 C-79.2874231 74.05167247 -79.2874231 74.05167247 -82.39404297 61.81201172 C-86.12995024 58.02200443 -90.58307007 55.27851429 -95.0390625 52.41308594 C-100.1465519 48.73253954 -104.0246615 42.92601549 -106 37 C-106.50705688 32.170491 -106.55440217 28.2012047 -104.5 23.75 C-100.66100637 19.52710701 -96.46534648 15.82178216 -91 14 C-91.45891669 16.14161124 -91.94303349 17.89750427 -93.01171875 19.8203125 C-95.26159005 24.78247924 -94.77759078 30.60474268 -93.125 35.6953125 C-90.40451539 41.54793399 -86.77881418 45.73263611 -82 50 C-81.91289711 46.89601022 -81.85957691 43.79233452 -81.8125 40.6875 C-81.78736328 39.80642578 -81.76222656 38.92535156 -81.73632812 38.01757812 C-81.72666016 37.17001953 -81.71699219 36.32246094 -81.70703125 35.44921875 C-81.6913208 34.66893311 -81.67561035 33.88864746 -81.65942383 33.0847168 C-82.08981987 30.45019937 -82.90500065 29.60636254 -85 28 C-87.60611077 27.27802838 -87.60611077 27.27802838 -90 27 C-90 26.01 -90 25.02 -90 24 C-89.410979 23.99589111 -88.82195801 23.99178223 -88.21508789 23.98754883 C-85.49660015 23.9542634 -82.78025184 23.88358808 -80.0625 23.8125 C-79.13630859 23.80669922 -78.21011719 23.80089844 -77.25585938 23.79492188 C-71.1904185 23.60338164 -67.15847842 22.50738414 -62.06811523 19.1628418 C-54.32427529 14.80870301 -40.76275985 15.85859786 -32.4140625 17.859375 C-29.87129865 18.80012946 -27.44353149 19.82992434 -25 21 C-23.515 21.495 -23.515 21.495 -22 22 C-22.495 21.01 -22.495 21.01 -23 20 C-23.1346515 15.1044562 -22.69296109 11.85287519 -19.5625 8 C-15.45298745 4.79257557 -13.30823994 4.81642901 -8.265625 5.41015625 C-4.85515 6.29805578 -3.14345677 8.30339309 -1 11 C-1.01160156 10.37351562 -1.02320313 9.74703125 -1.03515625 9.1015625 C-1.04417969 8.28429688 -1.05320312 7.46703125 -1.0625 6.625 C-1.07410156 5.81289063 -1.08570313 5.00078125 -1.09765625 4.1640625 C-1 2 -1 2 0 0 Z M-55 23 C-54.67 23.66 -54.34 24.32 -54 25 C-51.69 25 -49.38 25 -47 25 C-50.08809695 23.23537317 -51.23312136 23 -55 23 Z M-47 25 C-43.77484237 26.73662334 -40.48670834 27.8905928 -37 29 C-39.06756277 26.2027092 -40.14440371 25.97307727 -43.6875 25.3125 C-44.780625 25.209375 -45.87375 25.10625 -47 25 Z M-5 25 C-5.99 25.66 -6.98 26.32 -8 27 C-11.02329256 27.2610788 -13.95876242 27.08815181 -17 27 C-14.03 30.465 -14.03 30.465 -11 34 C-7.00003714 32.66667905 -6.16217663 30.5042173 -4 27 C-4.33 26.34 -4.66 25.68 -5 25 Z M-70 30 C-70 39.57 -70 49.14 -70 59 C-60.11388321 64.02977872 -50.25333124 68.77050086 -40 73 C-34.97533725 65.46300587 -35.56005711 56.65040315 -37 48 C-38.94951854 40.33111082 -43.59055492 35.46586548 -50 31 C-56.48996188 28.21858777 -63.23296147 28.30824037 -70 30 Z M-37 29 C-36.61328125 29.42410156 -36.2265625 29.84820312 -35.828125 30.28515625 C-30.45022073 36.34195437 -26.94035274 42.07689299 -25 50 C-24.67 50 -24.34 50 -24 50 C-24.0342383 42.60452779 -26.09430917 38.44666927 -31 33 C-32.11375 31.7625 -32.11375 31.7625 -33.25 30.5 C-34.86893785 28.78306954 -34.86893785 28.78306954 -37 29 Z M-24 56 C-23 58 -23 58 -23 58 Z M-70 70 C-70.02685095 72.47923801 -70.04676547 74.9581884 -70.0625 77.4375 C-70.07087891 78.14455078 -70.07925781 78.85160156 -70.08789062 79.58007812 C-70.09653588 81.38693559 -70.05220011 83.19387603 -70 85 C-67.72174955 87.27825045 -62.95251401 86.30383393 -59.87866211 86.33007812 C-54.18709791 86.24844938 -50.70770456 85.0744193 -46 82 C-48.17875967 79.58914761 -50.1536507 78.28549657 -53.125 76.9921875 C-53.91390625 76.64542969 -54.7028125 76.29867187 -55.515625 75.94140625 C-56.33546875 75.58949219 -57.1553125 75.23757812 -58 74.875 C-58.81984375 74.51535156 -59.6396875 74.15570313 -60.484375 73.78515625 C-63.63737823 72.40958131 -66.7345102 71.0884966 -70 70 Z " fill="#515355" transform="translate(152,18)"/>
<path d="M0 0 C1.859375 0.54296875 1.859375 0.54296875 4 2 C5.00243152 4.51536057 5.6747344 6.69450888 6.25 9.3125 C6.41693359 10.05943115 6.58386719 10.8063623 6.75585938 11.57592773 C10.60907165 30.71813587 8.70128294 50.40606255 -2 67 C-2.42410156 67.67675781 -2.84820312 68.35351562 -3.28515625 69.05078125 C-6.02371366 73.16302019 -8.80980113 76.34083533 -13 79 C-16.05094326 79.39012061 -18.94467991 79.30553201 -22 79 C-22 78.34 -22 77.68 -22 77 C-23.65 77 -25.3 77 -27 77 C-26.53746272 72.76007497 -25.9652495 68.702654 -24.9375 64.5625 C-23.04427928 56.24941054 -23.05327902 46.4572497 -27.1875 38.80078125 C-32.41892595 31.33746977 -38.82910159 26.65420583 -47.703125 24.5234375 C-54.42168073 23.45674737 -61.20904377 23.23087659 -68 23 C-61.57307281 16.97475576 -54.07502956 16.61055632 -45.6875 16.625 C-44.85734375 16.62443604 -44.0271875 16.62387207 -43.171875 16.62329102 C-36.49566958 16.74241598 -31.03964511 18.10793917 -25 21 C-24.01 21.33 -23.02 21.66 -22 22 C-22.495 21.01 -22.495 21.01 -23 20 C-23.1346515 15.1044562 -22.69296109 11.85287519 -19.5625 8 C-15.45298745 4.79257557 -13.30823994 4.81642901 -8.265625 5.41015625 C-4.85515 6.29805578 -3.14345677 8.30339309 -1 11 C-1.01160156 10.37351562 -1.02320313 9.74703125 -1.03515625 9.1015625 C-1.04417969 8.28429688 -1.05320312 7.46703125 -1.0625 6.625 C-1.07410156 5.81289063 -1.08570313 5.00078125 -1.09765625 4.1640625 C-1 2 -1 2 0 0 Z M-5 25 C-5.99 25.66 -6.98 26.32 -8 27 C-11.02329256 27.2610788 -13.95876242 27.08815181 -17 27 C-14.03 30.465 -14.03 30.465 -11 34 C-7.00003714 32.66667905 -6.16217663 30.5042173 -4 27 C-4.33 26.34 -4.66 25.68 -5 25 Z " fill="#8CC73B" transform="translate(152,18)"/>
<path d="M0 0 C1.77275429 0.01172069 3.54527864 0.10955857 5.3125 0.25 C6.27800781 0.31703125 7.24351563 0.3840625 8.23828125 0.453125 C11.31325789 1.06203126 12.82578233 1.74831614 15 4 C15 5.32 15 6.64 15 8 C17.64 8 20.28 8 23 8 C23.99 5.69 24.98 3.38 26 1 C36.15317287 0.36980306 36.15317287 0.36980306 39.6875 3 C40.120625 3.66 40.55375 4.32 41 5 C41.495 4.360625 41.99 3.72125 42.5 3.0625 C45.84928421 0.29934053 48.71834284 -0.08809994 53 0 C56.43805898 1.08570284 56.92924808 1.89387212 59 5 C59.680625 4.175 60.36125 3.35 61.0625 2.5 C64 0 64 0 67.625 -0.4375 C71 0 71 0 74 2 C73.34 4.64 72.68 7.28 72 10 C72.66 10 73.32 10 74 10 C74.33 7.03 74.66 4.06 75 1 C86.22 0.67 97.44 0.34 109 0 C109.99 2.31 110.98 4.62 112 7 C112.598125 6.030625 113.19625 5.06125 113.8125 4.0625 C116 1 116 1 119 0 C120.95648317 -0.09475844 122.91622955 -0.12988471 124.875 -0.125 C126.41800781 -0.12886719 126.41800781 -0.12886719 127.9921875 -0.1328125 C130.774648 -0.00995061 133.29239874 0.37055764 136 1 C135.125 5.875 135.125 5.875 134 7 C133.92811529 9.29581781 134.00353568 11.57517069 134.0625 13.87109375 C134 16 134 16 133 18 C128.38 18 123.76 18 119 18 C119.33 14.37 119.66 10.74 120 7 C119.57847656 7.71027344 119.15695313 8.42054688 118.72265625 9.15234375 C118.17480469 10.07144531 117.62695312 10.99054688 117.0625 11.9375 C116.24458984 13.31228516 116.24458984 13.31228516 115.41015625 14.71484375 C114 17 114 17 113 18 C111.00041636 18.04080783 108.99954746 18.04254356 107 18 C105.86642725 14.67485327 104.8530248 11.4120992 104 8 C103.01 11.3 102.02 14.6 101 18 C98.69 18 96.38 18 94 18 C94.66 14.04 95.32 10.08 96 6 C94.68 6 93.36 6 92 6 C91.34 9.96 90.68 13.92 90 18 C87.69 18 85.38 18 83 18 C83.66 14.04 84.32 10.08 85 6 C83.68 6 82.36 6 81 6 C80.855625 7.2375 80.71125 8.475 80.5625 9.75 C80.21311498 12.56504499 79.79620634 15.2701497 79 18 C75.66666667 18 72.33333333 18 69 18 C68.21625 18.02320313 67.4325 18.04640625 66.625 18.0703125 C65.75875 18.08835938 64.8925 18.10640625 64 18.125 C63.13375 18.14820313 62.2675 18.17140625 61.375 18.1953125 C59 18 59 18 56 16 C55.01 16.66 54.02 17.32 53 18 C49.95546509 18.48219153 47.04708913 18.46284898 44 18 C41.49839182 16.12379387 40.38054348 14.76108697 39 12 C38.01 12.66 37.02 13.32 36 14 C32.8125 14.125 32.8125 14.125 30 14 C29.67 15.32 29.34 16.64 29 18 C27.02 18 25.04 18 23 18 C23 16.35 23 14.7 23 13 C22.13375 13.2784375 22.13375 13.2784375 21.25 13.5625 C19 14 19 14 17.125 13.25 C16.42375 13.1675 15.7225 13.085 15 13 C14.195625 13.804375 13.39125 14.60875 12.5625 15.4375 C9.31932715 18.48692486 6.47037375 18.34080862 2.125 18.3125 C0.08224263 18.23252628 -1.960219 18.13618716 -4 18 C-2.28571429 2.28571429 -2.28571429 2.28571429 0 0 Z M5 6 C3.70366379 7.06645115 3.70366379 7.06645115 3.9375 9.5625 C3.958125 10.366875 3.97875 11.17125 4 12 C5.32 12 6.64 12 8 12 C8.33 10.68 8.66 9.36 9 8 C7.68 7.34 6.36 6.68 5 6 Z M32 6 C31.67 6.99 31.34 7.98 31 9 C31.99 8.67 32.98 8.34 34 8 C33.34 7.34 32.68 6.68 32 6 Z M47 7 C47 8.65 47 10.3 47 12 C48.65 11.67 50.3 11.34 52 11 C51.67 9.35 51.34 7.7 51 6 C48.9254644 5.8509288 48.9254644 5.8509288 47 7 Z M66 6 C70 7 70 7 70 7 Z M59 9 C58.67 10.32 58.34 11.64 58 13 C59.32 12.34 60.64 11.68 62 11 C61.01 10.34 60.02 9.68 59 9 Z M23 10 C24 13 24 13 24 13 Z M57 13 C58 15 58 15 58 15 Z M72 14 C73 16 73 16 73 16 Z " fill="#08427E" transform="translate(37,134)"/>
<path d="M0 0 C11.66316174 -0.39511338 23.31656668 2.06503551 32.21484375 9.9609375 C39.33608936 17.77405768 41.85190491 26.58293131 42.4140625 37.0390625 C42.14598485 41.87041744 40.74134373 46.06769117 38.23828125 50.20703125 C34.98525081 51.83354647 31.84602523 51.32156281 28.23828125 51.20703125 C27.90828125 50.87703125 27.57828125 50.54703125 27.23828125 50.20703125 C27.38482608 47.38679091 27.58062078 44.5840605 27.80078125 41.76953125 C28.4500097 31.85979385 28.16042072 23.53003807 22.23828125 15.20703125 C18.10809529 10.75834836 14.33919649 8.19104984 8.23828125 7.20703125 C3.94828125 7.20703125 -0.34171875 7.20703125 -4.76171875 7.20703125 C-4.76171875 16.11703125 -4.76171875 25.02703125 -4.76171875 34.20703125 C-7.76171875 35.20703125 -7.76171875 35.20703125 -10.26171875 34.45703125 C-12.75246237 33.21165944 -14.05181202 32.37307572 -15.76171875 30.20703125 C-16.14648438 27.89453125 -16.14648438 27.89453125 -16.16796875 25.20703125 C-16.18988281 24.23765625 -16.21179688 23.26828125 -16.234375 22.26953125 C-16.26171875 19.20703125 -16.26171875 19.20703125 -16.2890625 16.14453125 C-16.31097656 15.17515625 -16.33289063 14.20578125 -16.35546875 13.20703125 C-16.36255859 12.32015625 -16.36964844 11.43328125 -16.37695312 10.51953125 C-16.83857186 7.74513237 -17.53432225 6.87559224 -19.76171875 5.20703125 C-22.36782952 4.48505963 -22.36782952 4.48505963 -24.76171875 4.20703125 C-24.76171875 3.21703125 -24.76171875 2.22703125 -24.76171875 1.20703125 C-18.63326905 0.88022695 -12.50413766 0.58462669 -6.37255859 0.32275391 C-4.2477359 0.22857344 -2.12369499 0.11688041 0 0 Z " fill="#094F92" transform="translate(86.76171875,40.79296875)"/>
<path d="M0 0 C1.859375 0.54296875 1.859375 0.54296875 4 2 C5.00243152 4.51536057 5.6747344 6.69450888 6.25 9.3125 C6.41693359 10.05943115 6.58386719 10.8063623 6.75585938 11.57592773 C10.44775034 29.91671464 8.7767698 48.70152193 -0.6328125 65.05859375 C-2 67 -2 67 -4 68 C-2.34464282 61.17792193 -0.37399268 55.16626248 3 49 C3.66 49 4.32 49 5 49 C4.91621094 48.31292969 4.83242187 47.62585938 4.74609375 46.91796875 C4.59333984 45.56638672 4.59333984 45.56638672 4.4375 44.1875 C4.33308594 43.29417969 4.22867188 42.40085938 4.12109375 41.48046875 C4 39 4 39 5 36 C5.07029121 33.42734182 5.09370832 30.88358569 5.0625 28.3125 C5.05798828 27.61060547 5.05347656 26.90871094 5.04882812 26.18554688 C5.03706927 24.45699462 5.01913454 22.72848635 5 21 C4.34 20.67 3.68 20.34 3 20 C1.43691955 21.14198761 1.43691955 21.14198761 0 23 C-0.0825 23.928125 -0.165 24.85625 -0.25 25.8125 C-1.32058667 30.36249334 -4.1245984 32.53675302 -8 35 C-10.23046875 35.66796875 -10.23046875 35.66796875 -12 36 C-12 35.34 -12 34.68 -12 34 C-11.38125 33.9175 -10.7625 33.835 -10.125 33.75 C-7.84123036 33.18769808 -7.84123036 33.18769808 -6.75 31.0625 C-5.88608565 29.0525074 -5.88608565 29.0525074 -6 27 C-6.99 27.495 -6.99 27.495 -8 28 C-10.6723621 28.13415472 -13.32250488 28.04318541 -16 28 C-15.34 28.66 -14.68 29.32 -14 30 C-14.495 31.485 -14.495 31.485 -15 33 C-15 32.34 -15 31.68 -15 31 C-15.7425 30.896875 -16.485 30.79375 -17.25 30.6875 C-20.21722987 29.94569253 -21.80552883 29.11319446 -24 27 C-24 26.01 -24 25.02 -24 24 C-26.31 24 -28.62 24 -31 24 C-31.495 22.02 -31.495 22.02 -32 20 C-38.27 20 -44.54 20 -51 20 C-51 20.66 -51 21.32 -51 22 C-49.02 22 -47.04 22 -45 22 C-47 24 -47 24 -49.15478516 24.13525391 C-50.02409668 24.08288574 -50.8934082 24.03051758 -51.7890625 23.9765625 C-53.20058594 23.89921875 -53.20058594 23.89921875 -54.640625 23.8203125 C-55.62546875 23.75585938 -56.6103125 23.69140625 -57.625 23.625 C-58.61757812 23.56828125 -59.61015625 23.5115625 -60.6328125 23.453125 C-63.08924767 23.31140759 -65.54469735 23.15997723 -68 23 C-61.57307281 16.97475576 -54.07502956 16.61055632 -45.6875 16.625 C-44.85734375 16.62443604 -44.0271875 16.62387207 -43.171875 16.62329102 C-36.49566958 16.74241598 -31.03964511 18.10793917 -25 21 C-24.01 21.33 -23.02 21.66 -22 22 C-22.495 21.01 -22.495 21.01 -23 20 C-23.1346515 15.1044562 -22.69296109 11.85287519 -19.5625 8 C-15.45298745 4.79257557 -13.30823994 4.81642901 -8.265625 5.41015625 C-4.85515 6.29805578 -3.14345677 8.30339309 -1 11 C-1.01160156 10.37351562 -1.02320313 9.74703125 -1.03515625 9.1015625 C-1.04417969 8.28429688 -1.05320312 7.46703125 -1.0625 6.625 C-1.07410156 5.81289063 -1.08570313 5.00078125 -1.09765625 4.1640625 C-1 2 -1 2 0 0 Z " fill="#8EC440" transform="translate(152,18)"/>
<path d="M0 0 C3.44935605 2.2995707 3.89804378 3.10077031 5 7 C5.68742631 11.46827101 5.63251726 14.09075644 3 17.875 C-4.51304467 23.19673997 -12.25690315 22.15936442 -21 21 C-24.04595239 20.44199495 -26.99642052 19.7636219 -30 19 C-30 19.66 -30 20.32 -30 21 C-45.74487472 26.55580866 -45.74487472 26.55580866 -53 27 C-52.67 25.68 -52.34 24.36 -52 23 C-45.25 21 -45.25 21 -43 21 C-42.01 17.535 -42.01 17.535 -41 14 C-41.99 13.67 -42.98 13.34 -44 13 C-42.35 11.02 -40.7 9.04 -39 7 C-36.36 7.66 -33.72 8.32 -31 9 C-30.34 7.68 -29.68 6.36 -29 5 C-29 6.32 -29 7.64 -29 9 C-27.35 9 -25.7 9 -24 9 C-24 9.66 -24 10.32 -24 11 C-21.62337178 10.9123127 -19.25016873 10.80536886 -16.875 10.6875 C-16.20984375 10.66494141 -15.5446875 10.64238281 -14.859375 10.61914062 C-10.24371711 10.37025711 -6.89473073 9.50375547 -3 7 C-1.69150637 5.25298762 -1.69150637 5.25298762 -1.125 3.3125 C-0.75375 2.219375 -0.3825 1.12625 0 0 Z " fill="#545757" transform="translate(154,86)"/>
<path d="M0 0 C6.625 0 6.625 0 10 3 C10.33 3 10.66 3 11 3 C11.495 10.92 11.495 10.92 12 19 C14.330625 19.04125 16.66125 19.0825 19.0625 19.125 C20.37347656 19.14820312 21.68445313 19.17140625 23.03515625 19.1953125 C27.00558484 18.99972488 30.22317677 18.18488572 34 17 C36.9375 16.875 36.9375 16.875 39 17 C39.495 18.485 39.495 18.485 40 20 C38.27473958 20.68359375 36.54947917 21.3671875 34.82421875 22.05078125 C32.92340962 22.90316256 32.92340962 22.90316256 31.62528992 24.53804016 C28.79418901 27.08463556 25.01480109 26.36168811 21.39453125 26.29296875 C20.55532639 26.28872391 19.71612152 26.28447906 18.85148621 26.28010559 C16.17149755 26.26331464 13.4922613 26.2256623 10.8125 26.1875 C8.99545357 26.17245367 7.17839535 26.15876518 5.36132812 26.14648438 C0.90726224 26.11340982 -3.54624132 26.06162513 -8 26 C-8.33 24.68 -8.66 23.36 -9 22 C-5.04 21.505 -5.04 21.505 -1 21 C-0.67 14.07 -0.34 7.14 0 0 Z " fill="#044F99" transform="translate(71,84)"/>
<path d="M0 0 C0.66 0 1.32 0 2 0 C3.16461426 3.49384279 3.13568319 6.33655389 3 10 C2 11 2 11 -0.04125977 11.11352539 C-0.91580811 11.10828857 -1.79035645 11.10305176 -2.69140625 11.09765625 C-3.63564453 11.09443359 -4.57988281 11.09121094 -5.55273438 11.08789062 C-6.54595703 11.07951172 -7.53917969 11.07113281 -8.5625 11.0625 C-9.55958984 11.05798828 -10.55667969 11.05347656 -11.58398438 11.04882812 C-14.05604849 11.03700007 -16.52799518 11.02051849 -19 11 C-19 9.35 -19 7.7 -19 6 C-19.66 6 -20.32 6 -21 6 C-21 7.65 -21 9.3 -21 11 C-21.639375 10.814375 -22.27875 10.62875 -22.9375 10.4375 C-23.9584375 10.2209375 -23.9584375 10.2209375 -25 10 C-25.33 10.33 -25.66 10.66 -26 11 C-28.14307896 11.12537741 -30.29078886 11.17574364 -32.4375 11.1875 C-33.61183594 11.20167969 -34.78617187 11.21585938 -35.99609375 11.23046875 C-39 11 -39 11 -41 9 C-41.25 6 -41.25 6 -41 3 C-39 1 -39 1 -36 0.75 C-33 1 -33 1 -31 3 C-28.5 3.16666667 -28.5 3.16666667 -26 3 C-19.33333333 3 -12.66666667 3 -6 3 C-6 4.65 -6 6.3 -6 8 C-5.34 8 -4.68 8 -4 8 C-4 6.35 -4 4.7 -4 3 C-3.01 2.67 -2.02 2.34 -1 2 C-0.67 1.34 -0.34 0.68 0 0 Z M-1 3 C-1 5.31 -1 7.62 -1 10 C-0.67 10 -0.34 10 0 10 C0 7.69 0 5.38 0 3 C-0.33 3 -0.66 3 -1 3 Z M-38 4 C-38 5.32 -38 6.64 -38 8 C-35 9.33333333 -35 9.33333333 -32 8 C-32 6.68 -32 5.36 -32 4 C-33.98 4 -35.96 4 -38 4 Z M-10 5 C-9 7 -9 7 -9 7 Z M-29 6 C-29 6.66 -29 7.32 -29 8 C-28.34 8 -27.68 8 -27 8 C-27 7.34 -27 6.68 -27 6 C-27.66 6 -28.32 6 -29 6 Z " fill="#28292E" transform="translate(141,156)"/>
<path d="M0 0 C2.53541298 0.09086451 5.03554784 0.2370945 7.5625 0.4375 C8.62887695 0.51581055 8.62887695 0.51581055 9.71679688 0.59570312 C11.47821999 0.72574107 13.23916173 0.86226897 15 1 C14.19175781 1.57105469 13.38351563 2.14210937 12.55078125 2.73046875 C8.37905873 6.90219127 9.21657429 12.78515474 9.1875 18.3125 C9.16236328 19.43462891 9.13722656 20.55675781 9.11132812 21.71289062 C9.0525468 24.47561286 9.0162002 27.23675392 9 30 C5.77628844 30.35819017 4.4028238 30.29003141 1.7277832 28.36401367 C-0.40393441 25.44732275 -0.54843113 23.76493662 -0.64453125 20.17578125 C-0.68126953 19.06525391 -0.71800781 17.95472656 -0.75585938 16.81054688 C-0.77455078 15.65619141 -0.79324219 14.50183594 -0.8125 13.3125 C-0.86954102 11.56356445 -0.86954102 11.56356445 -0.92773438 9.77929688 C-1.09584651 3.63783872 -1.09584651 3.63783872 -1 1 C-0.67 0.67 -0.34 0.34 0 0 Z " fill="#024F9C" transform="translate(72,43)"/>
<path d="M0 0 C8.4672581 -0.28684563 16.30446696 1.23433642 24.23828125 4.20703125 C25.22828125 5.19703125 26.21828125 6.18703125 27.23828125 7.20703125 C21.29828125 6.21703125 21.29828125 6.21703125 15.23828125 5.20703125 C15.23828125 6.19703125 15.23828125 7.18703125 15.23828125 8.20703125 C14.33078125 8.04203125 13.42328125 7.87703125 12.48828125 7.70703125 C7.1004565 6.91829814 1.66915569 7.12677202 -3.76171875 7.20703125 C-2.77171875 6.21703125 -1.78171875 5.22703125 -0.76171875 4.20703125 C-7.69171875 3.71203125 -7.69171875 3.71203125 -14.76171875 3.20703125 C-14.6750097 7.31225647 -14.56815169 11.41522272 -14.44921875 15.51953125 C-14.42666016 16.68677734 -14.40410156 17.85402344 -14.38085938 19.05664062 C-14.34541016 20.17490234 -14.30996094 21.29316406 -14.2734375 22.4453125 C-14.24725342 23.47696533 -14.22106934 24.50861816 -14.1940918 25.5715332 C-13.95299866 28.19593361 -13.95299866 28.19593361 -12.54223633 30.00463867 C-10.40855974 31.6124139 -10.40855974 31.6124139 -5.76171875 32.20703125 C-5.76171875 24.28703125 -5.76171875 16.36703125 -5.76171875 8.20703125 C-5.43171875 8.20703125 -5.10171875 8.20703125 -4.76171875 8.20703125 C-4.76171875 16.78703125 -4.76171875 25.36703125 -4.76171875 34.20703125 C-7.76171875 35.20703125 -7.76171875 35.20703125 -10.26171875 34.45703125 C-12.75246237 33.21165944 -14.05181202 32.37307572 -15.76171875 30.20703125 C-16.14648438 27.89453125 -16.14648438 27.89453125 -16.16796875 25.20703125 C-16.18988281 24.23765625 -16.21179688 23.26828125 -16.234375 22.26953125 C-16.26171875 19.20703125 -16.26171875 19.20703125 -16.2890625 16.14453125 C-16.31097656 15.17515625 -16.33289063 14.20578125 -16.35546875 13.20703125 C-16.36255859 12.32015625 -16.36964844 11.43328125 -16.37695312 10.51953125 C-16.83857186 7.74513237 -17.53432225 6.87559224 -19.76171875 5.20703125 C-22.36782952 4.48505963 -22.36782952 4.48505963 -24.76171875 4.20703125 C-24.76171875 3.21703125 -24.76171875 2.22703125 -24.76171875 1.20703125 C-18.63326905 0.88022695 -12.50413766 0.58462669 -6.37255859 0.32275391 C-4.2477359 0.22857344 -2.12369499 0.11688041 0 0 Z " fill="#094982" transform="translate(86.76171875,40.79296875)"/>
<path d="M0 0 C0.99 0.33 1.98 0.66 3 1 C3.99 1 4.98 1 6 1 C9.6266998 6.44004971 9.18264724 12.16230086 9.1875 18.5 C9.19974609 19.34175781 9.21199219 20.18351562 9.22460938 21.05078125 C9.24375497 29.15575087 9.24375497 29.15575087 7 33 C4.5 33.875 4.5 33.875 2 34 C1.34 33.67 0.68 33.34 0 33 C0.00523682 32.2793335 0.01047363 31.55866699 0.01586914 30.81616211 C0.03676875 27.52328375 0.04970131 24.23041941 0.0625 20.9375 C0.07087891 19.80376953 0.07925781 18.67003906 0.08789062 17.50195312 C0.13213798 10.60364921 0.13213798 10.60364921 -0.56640625 3.75390625 C-0.70949219 2.84511719 -0.85257812 1.93632813 -1 1 C-0.67 0.67 -0.34 0.34 0 0 Z " fill="#03509E" transform="translate(116,57)"/>
<path d="M0 0 C0.33 0 0.66 0 1 0 C1.33 5.28 1.66 10.56 2 16 C4.330625 16.04125 6.66125 16.0825 9.0625 16.125 C10.37347656 16.14820312 11.68445313 16.17140625 13.03515625 16.1953125 C17.00558484 15.99972488 20.22317677 15.18488572 24 14 C26.9375 13.875 26.9375 13.875 29 14 C29.495 15.485 29.495 15.485 30 17 C28.27473958 17.68359375 26.54947917 18.3671875 24.82421875 19.05078125 C22.92122909 19.87612719 22.92122909 19.87612719 21.828125 21.54101562 C18.99364401 23.8031495 16.49467674 23.33666951 12.92578125 23.29296875 C12.2419487 23.28872391 11.55811615 23.28447906 10.8535614 23.28010559 C8.67280439 23.26333353 6.49297691 23.22568657 4.3125 23.1875 C2.83269565 23.17245114 1.3528768 23.15876308 -0.12695312 23.14648438 C-3.75160336 23.11343569 -7.37571094 23.06166446 -11 23 C-10.34 21.68 -9.68 20.36 -9 19 C-8.46375 19.165 -7.9275 19.33 -7.375 19.5 C-4.54113991 20.09660212 -1.8880194 20.0656368 1 20 C0.67 19.0925 0.34 18.185 0 17.25 C-1.53134866 11.97173441 -1.36936943 6.44605159 -1 1 C-0.67 0.67 -0.34 0.34 0 0 Z " fill="#07457E" transform="translate(81,87)"/>
<path d="M0 0 C1.98 0 3.96 0 6 0 C6 0.66 6 1.32 6 2 C6.99 1.34 7.98 0.68 9 0 C12.5625 -0.125 12.5625 -0.125 16 0 C16.66 0 17.32 0 18 0 C19.66965451 0.31802943 21.33678518 0.64984951 23 1 C23.93423645 4.01031744 24.04449911 4.86650268 23 8 C21.3603125 7.9071875 21.3603125 7.9071875 19.6875 7.8125 C16.06732786 7.58356471 16.06732786 7.58356471 14.4375 9.5625 C13.963125 10.036875 13.48875 10.51125 13 11 C9.8125 10.6875 9.8125 10.6875 7 10 C7 9.34 7 8.68 7 8 C4.69 8 2.38 8 0 8 C0 5.36 0 2.72 0 0 Z M10 3 C10 3.66 10 4.32 10 5 C10.99 4.67 11.98 4.34 13 4 C12.01 3.67 11.02 3.34 10 3 Z M7 6 C8 8 8 8 8 8 Z " fill="#232427" transform="translate(73,159)"/>
<path d="M0 0 C0.82870605 0.00016113 1.65741211 0.00032227 2.51123047 0.00048828 C9.0107526 0.12106133 14.97726209 1.04605279 20.6875 4.375 C21.1825 5.365 21.1825 5.365 21.6875 6.375 C16.9375 5.5 16.9375 5.5 14.6875 4.375 C13.1679236 4.22376169 11.64277498 4.12618307 10.1171875 4.05859375 C9.22128906 4.01669922 8.32539062 3.97480469 7.40234375 3.93164062 C6.46519531 3.89232422 5.52804688 3.85300781 4.5625 3.8125 C3.61761719 3.76931641 2.67273438 3.72613281 1.69921875 3.68164062 C-0.63787092 3.57540928 -2.9750683 3.47336824 -5.3125 3.375 C-5.3125 4.035 -5.3125 4.695 -5.3125 5.375 C-3.3325 5.375 -1.3525 5.375 0.6875 5.375 C-1.3125 7.375 -1.3125 7.375 -3.46728516 7.51025391 C-4.33659668 7.45788574 -5.2059082 7.40551758 -6.1015625 7.3515625 C-7.51308594 7.27421875 -7.51308594 7.27421875 -8.953125 7.1953125 C-9.93796875 7.13085938 -10.9228125 7.06640625 -11.9375 7 C-12.93007812 6.94328125 -13.92265625 6.8865625 -14.9453125 6.828125 C-17.40174767 6.68640759 -19.85719735 6.53497723 -22.3125 6.375 C-15.88608576 0.35023665 -8.38720471 -0.01529581 0 0 Z " fill="#A1C765" transform="translate(106.3125,34.625)"/>
<path d="M0 0 C6.0190783 5.41380786 6.67071537 14.07146688 7.140625 21.76171875 C6.92896251 26.63583549 5.52267483 30.82822678 3 35 C-0.25303044 36.62651522 -3.39225602 36.11453156 -7 36 C-7.33 35.67 -7.66 35.34 -8 35 C-7.90775026 32.11347584 -7.75977058 29.25469697 -7.5625 26.375 C-7.20334269 20.90339354 -6.93383303 15.48450685 -7 10 C-2.94451028 17.0209664 -5.07952356 26.27457274 -6 34 C-3.69 34 -1.38 34 1 34 C2.20516286 29.10845663 2.33461434 24.19724878 2.5625 19.1875 C2.60568359 18.30384766 2.64886719 17.42019531 2.69335938 16.50976562 C2.79891536 14.34000377 2.89991071 12.1700209 3 10 C2.34 9.67 1.68 9.34 1 9 C0.5859375 6.93359375 0.5859375 6.93359375 0.375 4.4375 C0.30023438 3.61121094 0.22546875 2.78492188 0.1484375 1.93359375 C0.09945312 1.29550781 0.05046875 0.65742187 0 0 Z " fill="#175083" transform="translate(122,56)"/>
<path d="M0 0 C5.26053037 -0.31563182 8.44573816 0.33409063 13 3 C13 4.98 13 6.96 13 9 C12.34 9 11.68 9 11 9 C10.34 7.02 9.68 5.04 9 3 C8.01 3 7.02 3 6 3 C5.34 5.31 4.68 7.62 4 10 C6.64 10 9.28 10 12 10 C9.375 13.875 9.375 13.875 6 15 C4.60560336 15.06665376 3.20830125 15.08538199 1.8125 15.0625 C-0.0746875 15.0315625 -0.0746875 15.0315625 -2 15 C-2.22577402 9.5814234 -1.46670113 5.22512279 0 0 Z " fill="#064C94" transform="translate(37,136)"/>
<path d="M0 0 C3.44935605 2.2995707 3.89804378 3.10077031 5 7 C5.42606628 9.76943079 5.56228447 12.2442494 5 15 C2.82425584 17.69105198 1.08934144 19.45532928 -2 21 C-4.3329866 21.04022391 -6.66706666 21.04320247 -9 21 C-8.34 20.34 -7.68 19.68 -7 19 C-6.01 19.33 -5.02 19.66 -4 20 C-4 19.01 -4 18.02 -4 17 C-3.34 17 -2.68 17 -2 17 C-2 16.34 -2 15.68 -2 15 C-2.66 14.67 -3.32 14.34 -4 14 C-5.35308313 12.68671343 -6.68870078 11.35500919 -8 10 C-7.05125 9.46375 -6.1025 8.9275 -5.125 8.375 C-1.63260408 5.7207791 -0.95264124 4.19162145 0 0 Z " fill="#545457" transform="translate(154,86)"/>
<path d="M0 0 C2.97 0 5.94 0 9 0 C9 0.66 9 1.32 9 2 C8.01 2.495 8.01 2.495 7 3 C8.32 3.33 9.64 3.66 11 4 C11 5.65 11 7.3 11 9 C10.01 9.33 9.02 9.66 8 10 C8 11.32 8 12.64 8 14 C6.52093108 14.02689216 5.04172517 14.04634621 3.5625 14.0625 C2.32693359 14.07990234 2.32693359 14.07990234 1.06640625 14.09765625 C-1 14 -1 14 -2 13 C-1.9140625 11.07421875 -1.9140625 11.07421875 -1.625 8.6875 C-1.53476563 7.90761719 -1.44453125 7.12773437 -1.3515625 6.32421875 C-1 4 -1 4 0 0 Z " fill="#034B92" transform="translate(160,137)"/>
<path d="M0 0 C1.32 0 2.64 0 4 0 C4.33 2.31 4.66 4.62 5 7 C5.99 7 6.98 7 8 7 C8.309375 6.21625 8.61875 5.4325 8.9375 4.625 C10 2 10 2 11 0 C11.99 0 12.98 0 14 0 C14.84904833 5.51881416 12.80905215 8.8365973 9.734375 13.20703125 C8 15 8 15 4.625 15.5625 C3.75875 15.376875 2.8925 15.19125 2 15 C-0.21538462 8.6 -0.21538462 8.6 0.875 5.5625 C1.24625 5.046875 1.6175 4.53125 2 4 C1.34 4 0.68 4 0 4 C0 2.68 0 1.36 0 0 Z " fill="#074C93" transform="translate(142,137)"/>
<path d="M0 0 C2.76276177 0.52268466 5.3260876 1.10869587 8 2 C8.66 1.34 9.32 0.68 10 0 C10.33 0.99 10.66 1.98 11 3 C13.97 3 16.94 3 20 3 C19.67 4.32 19.34 5.64 19 7 C17.948125 6.731875 16.89625 6.46375 15.8125 6.1875 C11.85416667 5.5625 11.85416667 5.5625 9.0625 8.4375 C8.381875 9.283125 7.70125 10.12875 7 11 C7.66 11.33 8.32 11.66 9 12 C8.64212875 14.64824722 8.31760089 16.55535876 6.75 18.75 C4.55535876 20.31760089 2.64824722 20.64212875 0 21 C0 20.01 0 19.02 0 18 C2.31 17.34 4.62 16.68 7 16 C6.67 15.34 6.34 14.68 6 14 C3.69 14 1.38 14 -1 14 C-0.67 13.34 -0.34 12.68 0 12 C0.66 12 1.32 12 2 12 C2 9.69 2 7.38 2 5 C2.66 5 3.32 5 4 5 C3.67 4.34 3.34 3.68 3 3 C2.01 3.495 2.01 3.495 1 4 C0.67 2.68 0.34 1.36 0 0 Z " fill="#4E5257" transform="translate(104,88)"/>
<path d="M0 0 C10.15317287 -0.63019694 10.15317287 -0.63019694 13.6875 2 C14.120625 2.66 14.55375 3.32 15 4 C16.32 2.68 17.64 1.36 19 0 C19.66 0.33 20.32 0.66 21 1 C20.195625 1.86625 19.39125 2.7325 18.5625 3.625 C16.03075864 6.62876093 15.28342624 9.03203262 15 13 C14.34 12.34 13.68 11.68 13 11 C12.01 11.66 11.02 12.32 10 13 C6.8125 13.125 6.8125 13.125 4 13 C3.67 14.32 3.34 15.64 3 17 C1.02 17 -0.96 17 -3 17 C-3 15.35 -3 13.7 -3 12 C-2.67 12.99 -2.34 13.98 -2 15 C-0.68 15 0.64 15 2 15 C2.33 13.68 2.66 12.36 3 11 C4.11375 10.87625 5.2275 10.7525 6.375 10.625 C10.03103677 10.3534187 10.03103677 10.3534187 12 8 C11.67958603 5.39719432 11.67958603 5.39719432 11 3 C10.01 3 9.02 3 8 3 C8.33 3.66 8.66 4.32 9 5 C8.01 5.33 7.02 5.66 6 6 C5.67 6.66 5.34 7.32 5 8 C6.65 7.67 8.3 7.34 10 7 C6.25 10 6.25 10 4 10 C4.33 7.69 4.66 5.38 5 3 C2.03 2.505 2.03 2.505 -1 2 C-0.67 1.34 -0.34 0.68 0 0 Z " fill="#073F77" transform="translate(63,135)"/>
<path d="M0 0 C2.66391092 0.86731983 3.72289112 1.47289112 5.75 3.5 C5.71712417 6.22869407 5.18602229 8.7966618 4.75 11.5 C3.76 11.83 2.77 12.16 1.75 12.5 C1.75 10.19 1.75 7.88 1.75 5.5 C-0.23 4.84 -2.21 4.18 -4.25 3.5 C-4.25 5.81 -4.25 8.12 -4.25 10.5 C-3.26 10.5 -2.27 10.5 -1.25 10.5 C-0.92 11.49 -0.59 12.48 -0.25 13.5 C-2.56 13.83 -4.87 14.16 -7.25 14.5 C-7.25 13.84 -7.25 13.18 -7.25 12.5 C-8.24 12.5 -9.23 12.5 -10.25 12.5 C-10.64595322 9.20038982 -10.86721256 6.5949808 -9.1953125 3.62890625 C-6.31507682 0.25825206 -4.4449768 -1.03013149 0 0 Z " fill="#064C95" transform="translate(88.25,135.5)"/>
<path d="M0 0 C4.46797338 1.39878802 8.63822079 3.13630772 12.875 5.125 C14.60363281 5.93324219 14.60363281 5.93324219 16.3671875 6.7578125 C17.23601562 7.16773437 18.10484375 7.57765625 19 8 C19 8.66 19 9.32 19 10 C21.11785113 11.11785113 21.11785113 11.11785113 24 12 C23.67 12.99 23.34 13.98 23 15 C22.34 14.67 21.68 14.34 21 14 C21.33 14.99 21.66 15.98 22 17 C21.34 17.99 20.68 18.98 20 20 C16.37 18.35 12.74 16.7 9 15 C9.33 14.34 9.66 13.68 10 13 C11.32 13 12.64 13 14 13 C13.67 11.35 13.34 9.7 13 8 C11.68 7.67 10.36 7.34 9 7 C8.67 7.66 8.34 8.32 8 9 C7.979375 8.401875 7.95875 7.80375 7.9375 7.1875 C7.09543384 4.56685398 7.09543384 4.56685398 3.4375 3.25 C2.303125 2.8375 1.16875 2.425 0 2 C0 1.34 0 0.68 0 0 Z " fill="#515355" transform="translate(85,79)"/>
<path d="M0 0 C0.66 0.33 1.32 0.66 2 1 C2 1.99 2 2.98 2 4 C-13.74487472 9.55580866 -13.74487472 9.55580866 -21 10 C-20.67 8.68 -20.34 7.36 -20 6 C-13.25 4 -13.25 4 -11 4 C-11 3.34 -11 2.68 -11 2 C-7.36178302 -0.32845886 -4.23971058 -0.23553948 0 0 Z " fill="#92B556" transform="translate(122,103)"/>
<path d="M0 0 C2.31 0 4.62 0 7 0 C6.67 2.31 6.34 4.62 6 7 C6.99 6.67 7.98 6.34 9 6 C8.67 5.01 8.34 4.02 8 3 C8 2.01 8 1.02 8 0 C9.65 0.33 11.3 0.66 13 1 C13.6875 3.3125 13.6875 3.3125 14 6 C13 7.75 13 7.75 11 9 C7.3125 9.6875 7.3125 9.6875 4 10 C3.67 10.99 3.34 11.98 3 13 C1.68 13 0.36 13 -1 13 C-0.84402344 12.22914063 -0.68804687 11.45828125 -0.52734375 10.6640625 C-0.33269531 9.66117188 -0.13804688 8.65828125 0.0625 7.625 C0.25972656 6.62726563 0.45695312 5.62953125 0.66015625 4.6015625 C1.24382952 2.02157461 1.24382952 2.02157461 0 0 Z " fill="#074C98" transform="translate(62,137)"/>
<path d="M0 0 C0.33 0.99 0.66 1.98 1 3 C-0.72526042 3.68359375 -2.45052083 4.3671875 -4.17578125 5.05078125 C-6.08737455 5.89426955 -6.08737455 5.89426955 -7.3125 7.59375 C-9.94665715 9.78888096 -12.34088018 9.28690455 -15.6875 9.1875 C-17.45673828 9.14689453 -17.45673828 9.14689453 -19.26171875 9.10546875 C-20.16535156 9.07066406 -21.06898437 9.03585938 -22 9 C-21.67 8.34 -21.34 7.68 -21 7 C-20.01 7 -19.02 7 -18 7 C-18 6.34 -18 5.68 -18 5 C-14.12315913 3.80712589 -11.08378077 3 -7 3 C-7 2.34 -7 1.68 -7 1 C-4.53721199 -0.231394 -2.7204945 -0.07159196 0 0 Z " fill="#0D4E81" transform="translate(110,101)"/>
<path d="M0 0 C0.33 0 0.66 0 1 0 C1.64864502 17.10427019 1.27729599 33.4062397 -9 48 C-9.99 48.495 -9.99 48.495 -11 49 C-9.34464282 42.17792193 -7.37399268 36.16626248 -4 30 C-3.34 30 -2.68 30 -2 30 C-2.020625 28.9275 -2.04125 27.855 -2.0625 26.75 C-2.01222241 23.73334487 -1.71190273 21.82874363 -1 19 C-0.85870882 17.48729395 -0.75537183 15.97071872 -0.68359375 14.453125 C-0.64169922 13.60878906 -0.59980469 12.76445313 -0.55664062 11.89453125 C-0.51732422 11.02183594 -0.47800781 10.14914063 -0.4375 9.25 C-0.39431641 8.36183594 -0.35113281 7.47367188 -0.30664062 6.55859375 C-0.20086385 4.37254037 -0.09877454 2.18637911 0 0 Z " fill="#A2C35A" transform="translate(159,37)"/>
<path d="M0 0 C3 1 3 1 4 3 C4.11664236 4.55842143 4.17866104 6.12114663 4.2109375 7.68359375 C4.23929687 8.61107422 4.26765625 9.53855469 4.296875 10.49414062 C4.34884963 12.45228464 4.39315332 14.41064768 4.4296875 16.36914062 C4.460625 17.29791016 4.4915625 18.22667969 4.5234375 19.18359375 C4.54325684 20.03493896 4.56307617 20.88628418 4.58349609 21.76342773 C5.09822792 24.52747126 5.71420529 25.38253886 8 27 C9.65 27.33 11.3 27.66 13 28 C13 20.08 13 12.16 13 4 C13.33 4 13.66 4 14 4 C14 12.58 14 21.16 14 30 C11 31 11 31 8.5 30.25 C6.0102325 29.00511625 4.71209907 28.16260334 3 26 C2.59936523 23.70336914 2.59936523 23.70336914 2.55859375 21.03515625 C2.53216797 20.07029297 2.50574219 19.10542969 2.47851562 18.11132812 C2.46498047 17.10521484 2.45144531 16.09910156 2.4375 15.0625 C2.40297393 13.07405423 2.36031812 11.08572899 2.30859375 9.09765625 C2.29626709 8.21601807 2.28394043 7.33437988 2.27124023 6.42602539 C1.98487055 3.86467929 1.28989849 2.21148392 0 0 Z " fill="#16456F" transform="translate(68,45)"/>
<path d="M0 0 C1.81242052 -0.02687279 3.62495233 -0.04633715 5.4375 -0.0625 C6.44683594 -0.07410156 7.45617187 -0.08570313 8.49609375 -0.09765625 C11 0 11 0 12 1 C12.04092937 3.33297433 12.04241723 5.66705225 12 8 C11.01 8 10.02 8 9 8 C8.67 6.35 8.34 4.7 8 3 C8 4.65 8 6.3 8 8 C7.01 8 6.02 8 5 8 C5 6.35 5 4.7 5 3 C4.34 3 3.68 3 3 3 C3 4.65 3 6.3 3 8 C2.01 8 1.02 8 0 8 C0 5.36 0 2.72 0 0 Z " fill="#202125" transform="translate(60,159)"/>
<path d="M0 0 C1.890625 0.63671875 1.890625 0.63671875 4 2 C5.046875 4.64453125 5.046875 4.64453125 5.75 7.8125 C6.11351562 9.36904297 6.11351562 9.36904297 6.484375 10.95703125 C6.95188733 13.71606237 7.10311782 16.21066285 7 19 C4.64046906 16.64046906 4.50858587 15.22104383 4 12 C3.34 12 2.68 12 2 12 C1.67 13.98 1.34 15.96 1 18 C0.34 17.67 -0.32 17.34 -1 17 C-1.02691685 14.54159395 -1.04679802 12.08348118 -1.0625 9.625 C-1.07087891 8.92632812 -1.07925781 8.22765625 -1.08789062 7.5078125 C-1.11328125 2.2265625 -1.11328125 2.2265625 0 0 Z " fill="#9CC155" transform="translate(152,18)"/>
<path d="M0 0 C0.66 0.66 1.32 1.32 2 2 C0.83428467 2.029729 0.83428467 2.029729 -0.35498047 2.06005859 C-3.86200691 2.15507009 -7.36841794 2.26484559 -10.875 2.375 C-12.70998047 2.42140625 -12.70998047 2.42140625 -14.58203125 2.46875 C-15.74863281 2.50742187 -16.91523437 2.54609375 -18.1171875 2.5859375 C-19.19597168 2.6173584 -20.27475586 2.6487793 -21.38623047 2.68115234 C-24.15761654 2.74676322 -24.15761654 2.74676322 -26 5 C-28.72869407 4.96712417 -31.2966618 4.43602229 -34 4 C-34 3.01 -34 2.02 -34 1 C-5.2970667 -0.530606 -5.2970667 -0.530606 0 0 Z " fill="#306380" transform="translate(96,41)"/>
<path d="M0 0 C0.66 0.33 1.32 0.66 2 1 C2.26679314 7.69947207 1.6517042 13.85714301 0.33984375 20.43359375 C-0.20562979 23.11315855 -0.20562979 23.11315855 1 26 C-0.65 26 -2.3 26 -4 26 C-3.53551965 21.74226348 -2.95776088 17.66063835 -1.9375 13.5 C-0.9309986 9.23717052 -0.92202005 5.36687709 -1 1 C-0.67 0.67 -0.34 0.34 0 0 Z " fill="#7CCD5F" transform="translate(129,69)"/>
<path d="M0 0 C3.0625 2.375 3.0625 2.375 5 5 C5 5.99 5 6.98 5 8 C4.34 8 3.68 8 3 8 C2.67 7.01 2.34 6.02 2 5 C1.34 4.67 0.68 4.34 0 4 C0 3.34 0 2.68 0 2 C-1.60407328 1.97291433 -3.2082785 1.95356517 -4.8125 1.9375 C-5.70582031 1.92589844 -6.59914062 1.91429687 -7.51953125 1.90234375 C-10.13413791 1.88990033 -10.13413791 1.88990033 -13 3 C-14.19493974 6.03173281 -14.10493955 9.02459427 -14.0625 12.25 C-14.04896484 13.58804688 -14.04896484 13.58804688 -14.03515625 14.953125 C-14.02355469 15.62859375 -14.01195312 16.3040625 -14 17 C-16.01247413 15.35438313 -16.93449616 14.54654767 -17.25 11.9140625 C-16.7773302 7.58617968 -16.38683346 5.47610272 -13.5625 2 C-8.97395103 -1.58130651 -5.557574 -1.41813957 0 0 Z " fill="#A9C76D" transform="translate(146,24)"/>
<path d="M0 0 C1.98 0 3.96 0 6 0 C7.875 2 7.875 2 9 4 C8.4225 3.690625 7.845 3.38125 7.25 3.0625 C5.15705816 2.07416636 3.25464725 1.4831387 1 1 C1.15984375 1.50402344 1.3196875 2.00804688 1.484375 2.52734375 C2.18598079 5.89186242 2.20970884 9.12767823 2.25 12.5625 C2.270625 13.23474609 2.29125 13.90699219 2.3125 14.59960938 C2.33554635 17.50056891 2.33174822 19.50779195 0.68359375 21.953125 C-1.84757385 23.52702968 -4.09573774 23.19361748 -7 23 C-6.67 23.99 -6.34 24.98 -6 26 C-6.99 25.67 -7.98 25.34 -9 25 C-9 24.01 -9 23.02 -9 22 C-5.04 21.505 -5.04 21.505 -1 21 C-0.67 14.07 -0.34 7.14 0 0 Z " fill="#0F4170" transform="translate(71,84)"/>
<path d="M0 0 C0.66 0.66 1.32 1.32 2 2 C1.01 2 0.02 2 -1 2 C-1.1546875 3.8253125 -1.1546875 3.8253125 -1.3125 5.6875 C-1.77427318 9.40147573 -2.65333113 11.99626385 -5 15 C-5.66 15 -6.32 15 -7 15 C-7.02694851 13.04174127 -7.04637218 11.08337774 -7.0625 9.125 C-7.07410156 8.03445312 -7.08570312 6.94390625 -7.09765625 5.8203125 C-7 3 -7 3 -6 1 C-3.0625 0.25 -3.0625 0.25 0 0 Z " fill="#064F9C" transform="translate(129,136)"/>
<path d="M0 0 C1.77275429 0.01172069 3.54527864 0.10955857 5.3125 0.25 C6.27800781 0.31703125 7.24351563 0.3840625 8.23828125 0.453125 C11.31325789 1.06203126 12.82578233 1.74831614 15 4 C15 5.32 15 6.64 15 8 C17.64 8 20.28 8 23 8 C23.66 6.68 24.32 5.36 25 4 C25.66 4.33 26.32 4.66 27 5 C26.34 7.64 25.68 10.28 25 13 C23.68 12.67 22.36 12.34 21 12 C21.33 11.01 21.66 10.02 22 9 C19.36 9 16.72 9 14 9 C14 7.68 14 6.36 14 5 C9.38 4.01 4.76 3.02 0 2 C-0.33 4.64 -0.66 7.28 -1 10 C-1.33 10 -1.66 10 -2 10 C-1.85950482 8.52031676 -1.71245174 7.04125484 -1.5625 5.5625 C-1.48128906 4.73878906 -1.40007813 3.91507813 -1.31640625 3.06640625 C-1 1 -1 1 0 0 Z " fill="#0E3F6D" transform="translate(37,134)"/>
<path d="M0 0 C1.31896465 0.92838287 2.62998689 1.86805732 3.9375 2.8125 C4.66839844 3.33457031 5.39929688 3.85664062 6.15234375 4.39453125 C8 6 8 6 9 9 C6 11 6 11 3 12 C2.01 11.34 1.02 10.68 0 10 C0 9.34 0 8.68 0 8 C-0.66 7.67 -1.32 7.34 -2 7 C-1.34 4.69 -0.68 2.38 0 0 Z " fill="#565659" transform="translate(60,62)"/>
<path d="M0 0 C3.44935605 2.2995707 3.89804378 3.10077031 5 7 C5.44239578 10.83663928 5.53493824 14.02738502 3.625 17.5 C2 19 2 19 0 19 C0.22816406 18.38511719 0.45632812 17.77023438 0.69140625 17.13671875 C0.97886719 16.32847656 1.26632813 15.52023438 1.5625 14.6875 C1.99755859 13.48673828 1.99755859 13.48673828 2.44140625 12.26171875 C3.24915625 9.8566826 3.24915625 9.8566826 2 7 C0.3603125 7.99 0.3603125 7.99 -1.3125 9 C-3.93707538 10.58464929 -4.8256378 11 -8 11 C-7.236875 10.484375 -6.47375 9.96875 -5.6875 9.4375 C-2.38424393 6.44152356 -1.51374274 4.14287486 0 0 Z " fill="#4A4B47" transform="translate(154,86)"/>
<path d="M0 0 C4.16138263 -0.08159574 7.9472484 0.01751476 12 1 C12.33 1.99 12.66 2.98 13 4 C13.66 4.268125 14.32 4.53625 15 4.8125 C15.66 5.204375 16.32 5.59625 17 6 C17.75 9.125 17.75 9.125 18 12 C17.57589844 11.61328125 17.15179688 11.2265625 16.71484375 10.828125 C11.54835611 6.24073817 6.2376438 2.99406902 0 0 Z " fill="#82AF5F" transform="translate(106,42)"/>
<path d="M0 0 C3.83588262 0.17048367 7.2651627 -0.12121475 11 -1 C10 1 10 1 6.98046875 2.0703125 C5.10294922 2.59238281 5.10294922 2.59238281 3.1875 3.125 C1.94355469 3.47820312 0.69960937 3.83140625 -0.58203125 4.1953125 C-4 5 -4 5 -8 5 C-7.8125 3.125 -7.8125 3.125 -7 1 C-2.66666667 -1.33333333 -2.66666667 -1.33333333 0 0 Z " fill="#9DBB70" transform="translate(109,108)"/>
<path d="M0 0 C0.66 0 1.32 0 2 0 C2.0501123 0.65073486 2.10022461 1.30146973 2.15185547 1.97192383 C2.38392045 4.91957011 2.62930221 7.86596009 2.875 10.8125 C2.95363281 11.83666016 3.03226562 12.86082031 3.11328125 13.91601562 C3.19707031 14.89892578 3.28085938 15.88183594 3.3671875 16.89453125 C3.44050293 17.80050049 3.51381836 18.70646973 3.58935547 19.63989258 C3.88153961 22.25982527 3.88153961 22.25982527 6 25 C6.99 25.33 7.98 25.66 9 26 C9.33 24.68 9.66 23.36 10 22 C10 23.65 10 25.3 10 27 C6.79440552 27.35617716 5.44915355 27.35295041 2.86621094 25.32324219 C0.61808011 22.5245487 0.46951313 21.12809063 0.390625 17.578125 C0.35839844 16.55332031 0.32617188 15.52851562 0.29296875 14.47265625 C0.27878906 13.40917969 0.26460938 12.34570312 0.25 11.25 C0.22035156 10.17105469 0.19070312 9.09210937 0.16015625 7.98046875 C0.08953064 5.32023756 0.03679804 2.66087898 0 0 Z " fill="#114D8C" transform="translate(71,46)"/>
<path d="M0 0 C0.99 0 1.98 0 3 0 C2.46884894 4.51478398 0.63379708 7.34666857 -2 11 C-3.65 10.67 -5.3 10.34 -7 10 C-7 9.01 -7 8.02 -7 7 C-5.68 7 -4.36 7 -3 7 C-2.690625 6.21625 -2.38125 5.4325 -2.0625 4.625 C-1 2 -1 2 0 0 Z " fill="#034E99" transform="translate(153,137)"/>
<path d="M0 0 C0.99 0.99 1.98 1.98 3 3 C1.60678155 7.87626457 -0.93858296 10.07577973 -5 13 C-7.375 13.8125 -7.375 13.8125 -9 14 C-9 13.34 -9 12.68 -9 12 C-8.071875 11.87625 -8.071875 11.87625 -7.125 11.75 C-4.9003946 11.20665099 -4.9003946 11.20665099 -3.9375 9.375 C-3.4734375 8.199375 -3.4734375 8.199375 -3 7 C-2.46044342 5.74908774 -1.91865292 4.49913741 -1.375 3.25 C-0.92125 2.1775 -0.4675 1.105 0 0 Z " fill="#94C246" transform="translate(149,40)"/>
<path d="M0 0 C7.625 0.875 7.625 0.875 11 2 C11 2.66 11 3.32 11 4 C12.32 4.33 13.64 4.66 15 5 C15 5.66 15 6.32 15 7 C17.31 7.66 19.62 8.32 22 9 C22 9.66 22 10.32 22 11 C16.95924869 9.43976745 12.13516096 7.73481828 8 4.375 C5.4082362 2.59316239 3.08962369 2.3510936 0 2 C0 1.34 0 0.68 0 0 Z " fill="#394857" transform="translate(71,82)"/>
<path d="M0 0 C0.84433594 0.09990234 1.68867187 0.19980469 2.55859375 0.30273438 C3.86763672 0.48352539 3.86763672 0.48352539 5.203125 0.66796875 C6.53537109 0.83135742 6.53537109 0.83135742 7.89453125 0.99804688 C10.0831203 1.26867885 12.26847508 1.55493658 14.453125 1.85546875 C12.453125 3.85546875 12.453125 3.85546875 10.29833984 3.99072266 C9.42902832 3.93835449 8.5597168 3.88598633 7.6640625 3.83203125 C6.25253906 3.7546875 6.25253906 3.7546875 4.8125 3.67578125 C3.82765625 3.61132812 2.8428125 3.546875 1.828125 3.48046875 C0.83554688 3.42375 -0.15703125 3.36703125 -1.1796875 3.30859375 C-3.63612267 3.16687634 -6.09157235 3.01544598 -8.546875 2.85546875 C-5.54497216 0.21534902 -3.96873445 -0.50949969 0 0 Z " fill="#86B169" transform="translate(92.546875,38.14453125)"/>
<path d="M0 0 C2.31 0.66 4.62 1.32 7 2 C6.64212875 4.64824722 6.31760089 6.55535876 4.75 8.75 C2.55535876 10.31760089 0.64824722 10.64212875 -2 11 C-2 10.01 -2 9.02 -2 8 C0.31 7.34 2.62 6.68 5 6 C4.67 5.34 4.34 4.68 4 4 C1.69 4 -0.62 4 -3 4 C-2.67 3.34 -2.34 2.68 -2 2 C-1.34 2 -0.68 2 0 2 C0 1.34 0 0.68 0 0 Z " fill="#224B5C" transform="translate(106,98)"/>
<path d="M0 0 C1.32 0.33 2.64 0.66 4 1 C2.25 8.625 2.25 8.625 0 12 C-0.66 12 -1.32 12 -2 12 C-1.85831863 10.56208484 -1.71148957 9.1246763 -1.5625 7.6875 C-1.48128906 6.88699219 -1.40007812 6.08648437 -1.31640625 5.26171875 C-1 3 -1 3 0 0 Z " fill="#064E95" transform="translate(113,137)"/>
<path d="M0 0 C1.32 0.33 2.64 0.66 4 1 C3.01 1.33 2.02 1.66 1 2 C0.34 5.96 -0.32 9.92 -1 14 C-3.31 14 -5.62 14 -8 14 C-7.67 11.69 -7.34 9.38 -7 7 C-6.67 7 -6.34 7 -6 7 C-6 8.98 -6 10.96 -6 13 C-3.3534256 11.6767128 -3.12524484 10.74278429 -2 8 C-1.25908475 5.3458995 -0.62648621 2.68494088 0 0 Z " fill="#0B3D74" transform="translate(128,138)"/>
<path d="M0 0 C1.9375 0.8125 1.9375 0.8125 4 2 C4.33 2.99 4.66 3.98 5 5 C4.34 5 3.68 5 3 5 C3 5.99 3 6.98 3 8 C3.66 8 4.32 8 5 8 C5 8.66 5 9.32 5 10 C3.35 10 1.7 10 0 10 C-1.125 2.25 -1.125 2.25 0 0 Z " fill="#21242B" transform="translate(145,157)"/>
<path d="M0 0 C2.1875 0.3125 2.1875 0.3125 4 1 C3.34 1 2.68 1 2 1 C2 1.99 2 2.98 2 4 C2.99 4.66 3.98 5.32 5 6 C5 6.66 5 7.32 5 8 C4.34 8 3.68 8 3 8 C2.67 8.66 2.34 9.32 2 10 C-1.32901247 7.78065836 -1.75023244 6.65316671 -3 3 C-1.75 1.4375 -1.75 1.4375 0 0 Z " fill="#065097" transform="translate(100,137)"/>
<path d="M0 0 C0.99 0 1.98 0 3 0 C2.95875 0.78375 2.9175 1.5675 2.875 2.375 C2.71271266 5.16116119 2.71271266 5.16116119 5 7 C3.02 7.33 1.04 7.66 -1 8 C-2 6 -2 6 -2 3 C-1.34 2.67 -0.68 2.34 0 2 C0 1.34 0 0.68 0 0 Z M6 3 C6.99 3.33 7.98 3.66 9 4 C7.02 4.99 7.02 4.99 5 6 C4.67 5.34 4.34 4.68 4 4 C4.66 3.67 5.32 3.34 6 3 Z " fill="#1C1D24" transform="translate(86,159)"/>
<path d="M0 0 C0.33 0 0.66 0 1 0 C1 2.31 1 4.62 1 7 C2.77305664 6.74412595 4.54344608 6.46972261 6.3125 6.1875 C7.29863281 6.03667969 8.28476562 5.88585937 9.30078125 5.73046875 C12.17572449 4.95244504 13.07125014 4.16613446 15 2 C15.66 2 16.32 2 17 2 C15.63016497 5.16115776 15.0109362 5.9927092 12 8 C8.86328125 8.1953125 8.86328125 8.1953125 5.3125 8.125 C4.13300781 8.10695312 2.95351563 8.08890625 1.73828125 8.0703125 C0.83464844 8.04710937 -0.06898437 8.02390625 -1 8 C-0.67 5.36 -0.34 2.72 0 0 Z " fill="#0E3D70" transform="translate(34,144)"/>
<path d="M0 0 C0.66 0 1.32 0 2 0 C0.87420679 3.94027624 -0.90784382 6.49862909 -4.13671875 9.0625 C-7.59626018 10.80314978 -11.23466137 10.37653386 -15 10 C-15 9.34 -15 8.68 -15 8 C-14.41992188 8.00902344 -13.83984375 8.01804687 -13.2421875 8.02734375 C-8.28006628 7.86406258 -8.28006628 7.86406258 -4.13671875 5.375 C-3.112973 4.11500524 -2.12794611 2.8221915 -1.19140625 1.49609375 C-0.79824219 1.00238281 -0.40507812 0.50867188 0 0 Z " fill="#859F55" transform="translate(145,87)"/>
<path d="M0 0 C0.33 0.66 0.66 1.32 1 2 C-0.78673911 5.19332095 -2.60665563 8.22307222 -5 11 C-8.3125 11.625 -8.3125 11.625 -11 11 C-12 10 -12 10 -12.0625 7.4375 C-12.041875 6.633125 -12.02125 5.82875 -12 5 C-11.38125 5.7425 -11.38125 5.7425 -10.75 6.5 C-8.87797662 8.43386092 -8.87797662 8.43386092 -5 8 C-4.319375 6.576875 -4.319375 6.576875 -3.625 5.125 C-2 2 -2 2 0 0 Z " fill="#0F3F75" transform="translate(155,141)"/>
<path d="M0 0 C0.66 0 1.32 0 2 0 C1.87431641 1.03060547 1.87431641 1.03060547 1.74609375 2.08203125 C1.64425781 2.98308594 1.54242188 3.88414062 1.4375 4.8125 C1.33308594 5.70582031 1.22867188 6.59914062 1.12109375 7.51953125 C0.84341291 10.13375572 0.84341291 10.13375572 2 13 C0.35 12.67 -1.3 12.34 -3 12 C-2.88541307 10.56163249 -2.75790884 9.12429034 -2.625 7.6875 C-2.55539063 6.88699219 -2.48578125 6.08648437 -2.4140625 5.26171875 C-2 3 -2 3 0 0 Z " fill="#05509D" transform="translate(39,137)"/>
<path d="M0 0 C3.3 0.33 6.6 0.66 10 1 C9.67 2.32 9.34 3.64 9 5 C7.68 5.33 6.36 5.66 5 6 C4.34 5.01 3.68 4.02 3 3 C2.01 3 1.02 3 0 3 C0 2.01 0 1.02 0 0 Z " fill="#074E9C" transform="translate(102,46)"/>
<path d="M0 0 C5.91969002 1.75990784 11.41634992 4.39694605 17 7 C13.90279155 7.87840996 12.09354597 7.99435406 9 7 C8.67 7.66 8.34 8.32 8 9 C7.979375 8.401875 7.95875 7.80375 7.9375 7.1875 C7.09543384 4.56685398 7.09543384 4.56685398 3.4375 3.25 C2.303125 2.8375 1.16875 2.425 0 2 C0 1.34 0 0.68 0 0 Z " fill="#4D4D4E" transform="translate(85,79)"/>
<path d="M0 0 C0.33 0 0.66 0 1 0 C1.33 2.31 1.66 4.62 2 7 C4.97 7 7.94 7 11 7 C11 6.01 11 5.02 11 4 C11.99 4 12.98 4 14 4 C13.67 5.65 13.34 7.3 13 9 C8.38 9 3.76 9 -1 9 C-0.67 6.03 -0.34 3.06 0 0 Z " fill="#123F6A" transform="translate(157,143)"/>
<path d="M0 0 C3.36730566 5.05095848 3.1831041 8.43173981 3.1875 14.375 C3.19974609 15.23867188 3.21199219 16.10234375 3.22460938 16.9921875 C3.22654297 17.8275 3.22847656 18.6628125 3.23046875 19.5234375 C3.23457764 20.28575684 3.23868652 21.04807617 3.24291992 21.83349609 C2.97038763 24.26410069 2.20839576 25.89091986 1 28 C0 25 0 25 1 22 C1.09617307 19.48818571 1.13934762 17.01083378 1.125 14.5 C1.12886719 13.82324219 1.13273438 13.14648438 1.13671875 12.44921875 C1.13062416 9.35926233 0.9844023 6.95320689 0 4 C0 2.68 0 1.36 0 0 Z " fill="#94C249" transform="translate(156,32)"/>
<path d="M0 0 C5.1135416 1.70451387 7.81787993 6.3450319 10.875 10.625 C12.13701375 13.28925125 12.24968794 15.08697406 12 18 C10 15 10 15 8.3125 11.6875 C5.99163939 7.53995443 2.73234312 4.862162 -1 2 C-0.67 1.34 -0.34 0.68 0 0 Z " fill="#0F4678" transform="translate(103,48)"/>
<path d="M0 0 C2.31 0.33 4.62 0.66 7 1 C6.38125 1.144375 5.7625 1.28875 5.125 1.4375 C2.96741678 1.93152225 2.96741678 1.93152225 1 3 C5.455 3.99 5.455 3.99 10 5 C10 5.33 10 5.66 10 6 C8.37509046 6.02698189 6.75005367 6.04638757 5.125 6.0625 C3.76761719 6.07990234 3.76761719 6.07990234 2.3828125 6.09765625 C0 6 0 6 -2 5 C-1.34 3.35 -0.68 1.7 0 0 Z " fill="#0B4375" transform="translate(96,146)"/>
<path d="M0 0 C2.31 0.33 4.62 0.66 7 1 C6.875 2.875 6.875 2.875 6 5 C2.9375 6.25 2.9375 6.25 0 7 C-1 5 -1 5 -1 2 C-0.67 1.34 -0.34 0.68 0 0 Z " fill="#054787" transform="translate(102,135)"/>
<path d="M0 0 C0.33 0.99 0.66 1.98 1 3 C-2.4352048 5.29013653 -3.985331 5.17842973 -8 5 C-7.625 3.0625 -7.625 3.0625 -7 1 C-4.53721199 -0.231394 -2.7204945 -0.07159196 0 0 Z " fill="#064F92" transform="translate(110,101)"/>
<path d="M0 0 C1.9375 0.6875 1.9375 0.6875 4 2 C4.75 4.625 4.75 4.625 5 7 C4.34 7 3.68 7 3 7 C2.67 7.66 2.34 8.32 2 9 C1.34 9 0.68 9 0 9 C-1.125 2.25 -1.125 2.25 0 0 Z " fill="#ACBF76" transform="translate(152,18)"/>
<path d="M0 0 C0.66 0.33 1.32 0.66 2 1 C1.979375 1.928125 1.95875 2.85625 1.9375 3.8125 C1.84230396 7.02286011 1.84230396 7.02286011 3 10 C1.35 10 -0.3 10 -2 10 C-1.125 2.25 -1.125 2.25 0 0 Z " fill="#89B860" transform="translate(127,85)"/>
<path d="M0 0 C1.98 0 3.96 0 6 0 C6 0.99 6 1.98 6 3 C5.01 3 4.02 3 3 3 C3 4.65 3 6.3 3 8 C2.01 8 1.02 8 0 8 C0 5.36 0 2.72 0 0 Z " fill="#23282D" transform="translate(60,159)"/>
<path d="M0 0 C0.928125 0.20625 1.85625 0.4125 2.8125 0.625 C2.4825 2.275 2.1525 3.925 1.8125 5.625 C0.1625 5.625 -1.4875 5.625 -3.1875 5.625 C-2.5275 5.295 -1.8675 4.965 -1.1875 4.625 C-1.1875 3.965 -1.1875 3.305 -1.1875 2.625 C-2.8375 2.295 -4.4875 1.965 -6.1875 1.625 C-3.1875 -0.375 -3.1875 -0.375 0 0 Z " fill="#0E4179" transform="translate(170.1875,134.375)"/>
<path d="M0 0 C0.33 0 0.66 0 1 0 C2.03335117 8.05515909 2.42546443 14.51042522 -1 22 C-1.89506817 19.03013448 -2.03315169 16.74360212 -1.66015625 13.671875 C-1.56669922 12.87265625 -1.47324219 12.0734375 -1.37695312 11.25 C-1.22129883 10.0125 -1.22129883 10.0125 -1.0625 8.75 C-0.96259766 7.90953125 -0.86269531 7.0690625 -0.75976562 6.203125 C-0.51295742 4.13463723 -0.25733716 2.06720428 0 0 Z " fill="#457881" transform="translate(127,68)"/>
<path d="M0 0 C0.66 0 1.32 0 2 0 C2 0.66 2 1.32 2 2 C2.66 2 3.32 2 4 2 C5.17571451 5.67410785 5.07366746 9.16929183 5 13 C4.34 13 3.68 13 3 13 C2.86722656 12.39671875 2.73445313 11.7934375 2.59765625 11.171875 C2.42105469 10.37265625 2.24445313 9.5734375 2.0625 8.75 C1.88847656 7.96109375 1.71445313 7.1721875 1.53515625 6.359375 C1.052444 4.23121297 0.53836822 2.11467158 0 0 Z " fill="#84B662" transform="translate(125,55)"/>
<path d="M0 0 C0.99 0 1.98 0 3 0 C3 3.3 3 6.6 3 10 C2.01 10 1.02 10 0 10 C0 6.7 0 3.4 0 0 Z " fill="#23252C" transform="translate(56,157)"/>
<path d="M0 0 C0.99 0.66 1.98 1.32 3 2 C2.67 3.65 2.34 5.3 2 7 C1.01 6.67 0.02 6.34 -1 6 C-0.34 4.68 0.32 3.36 1 2 C-2.41656024 1.83322718 -2.41656024 1.83322718 -6 2 C-6.66 2.66 -7.32 3.32 -8 4 C-8.99 3.67 -9.98 3.34 -11 3 C-7.48991846 -0.36967828 -4.74988885 -0.43180808 0 0 Z " fill="#0C3E68" transform="translate(108,134)"/>
<path d="M0 0 C2.64 0.33 5.28 0.66 8 1 C8 1.33 8 1.66 8 2 C10.31 2.33 12.62 2.66 15 3 C15 3.33 15 3.66 15 4 C9.39 4 3.78 4 -2 4 C-1.34 2.68 -0.68 1.36 0 0 Z " fill="#024371" transform="translate(72,106)"/>
<path d="M0 0 C1.65 0 3.3 0 5 0 C5 0.66 5 1.32 5 2 C8.3 2 11.6 2 15 2 C14.67 2.66 14.34 3.32 14 4 C8.78020872 4.1799928 4.92737019 3.97094808 0 2 C0 1.34 0 0.68 0 0 Z " fill="#576144" transform="translate(125,95)"/>
<path d="M0 0 C6.43124858 -0.40195304 11.12767309 0.27356251 17 3 C17.33 3.66 17.66 4.32 18 5 C9.09 3.02 9.09 3.02 0 1 C0 0.67 0 0.34 0 0 Z " fill="#1C5072" transform="translate(96,43)"/>
<path d="M0 0 C2.375 -0.125 2.375 -0.125 5 0 C7 2 7 2 7.125 4.625 C7.08375 5.40875 7.0425 6.1925 7 7 C5.02 7.99 5.02 7.99 3 9 C3.33 6.69 3.66 4.38 4 2 C2.68 2 1.36 2 0 2 C0 1.34 0 0.68 0 0 Z " fill="#083C77" transform="translate(84,139)"/>
<path d="M0 0 C1.32 0.33 2.64 0.66 4 1 C3.01 1.495 3.01 1.495 2 2 C2.99 2.33 3.98 2.66 5 3 C5.33 3.99 5.66 4.98 6 6 C2.7 5.34 -0.6 4.68 -4 4 C-4 3.34 -4 2.68 -4 2 C-2.68 2 -1.36 2 0 2 C0 1.34 0 0.68 0 0 Z " fill="#555D4B" transform="translate(120,99)"/>
<path d="M0 0 C2.29633824 3.44450737 2.54016485 5.93812283 3 10 C2.01 10.33 1.02 10.66 0 11 C0 7.37 0 3.74 0 0 Z " fill="#07468C" transform="translate(122,140)"/>
<path d="M0 0 C6.258654 -0.5326514 10.45108785 1.18150494 16 4 C11.54186071 5.46328423 9.20442614 3.91780842 5 2 C2.22111387 1.30859478 2.22111387 1.30859478 0 1 C0 0.67 0 0.34 0 0 Z " fill="#A4C767" transform="translate(112,36)"/>
<path d="M0 0 C3.91593446 0.78318689 7.36406635 2.39179858 11 4 C10.67 4.66 10.34 5.32 10 6 C3.47692308 4.52307692 3.47692308 4.52307692 1.0625 1.875 C0.711875 1.25625 0.36125 0.6375 0 0 Z " fill="#304B66" transform="translate(71,70)"/>
<path d="M0 0 C0.75 1.75 0.75 1.75 1 4 C-1.31787009 7.00464642 -3.2273236 8.46104623 -7 9 C-7 8.34 -7 7.68 -7 7 C-6.38125 6.9175 -5.7625 6.835 -5.125 6.75 C-2.83911206 6.19416524 -2.83911206 6.19416524 -1.8125 4.0625 C-1.544375 3.381875 -1.27625 2.70125 -1 2 C-0.67 1.34 -0.34 0.68 0 0 Z " fill="#9DC061" transform="translate(147,45)"/>
<path d="M0 0 C2.97 0.495 2.97 0.495 6 1 C6.33 2.98 6.66 4.96 7 7 C5.83040013 6.02433888 4.66438823 5.044375 3.5 4.0625 C2.8503125 3.51722656 2.200625 2.97195312 1.53125 2.41015625 C1.0259375 1.94480469 0.520625 1.47945312 0 1 C0 0.67 0 0.34 0 0 Z " fill="#7CA457" transform="translate(117,47)"/>
<path d="M0 0 C1.98 0 3.96 0 6 0 C6.33 0.99 6.66 1.98 7 3 C3.25 4.125 3.25 4.125 1 3 C1 3.66 1 4.32 1 5 C0.34 4.67 -0.32 4.34 -1 4 C-0.67 2.68 -0.34 1.36 0 0 Z " fill="#22262C" transform="translate(102,157)"/>
<path d="M0 0 C0.66 0.33 1.32 0.66 2 1 C1.67 2.65 1.34 4.3 1 6 C2.32 6.33 3.64 6.66 5 7 C3.34385343 7.38218767 1.67542976 7.71395102 0 8 C-0.33 7.67 -0.66 7.34 -1 7 C-0.71269945 4.66055264 -0.38063221 2.3260857 0 0 Z " fill="#0A3D78" transform="translate(40,140)"/>
<path d="M0 0 C0.99 0.33 1.98 0.66 3 1 C3 2.32 3 3.64 3 5 C1.35 5 -0.3 5 -2 5 C-2 3.68 -2 2.36 -2 1 C-1.34 0.67 -0.68 0.34 0 0 Z " fill="#034E9B" transform="translate(161,140)"/>
<path d="M0 0 C0 1.65 0 3.3 0 5 C-1.32 5.33 -2.64 5.66 -4 6 C-4.33 4.35 -4.66 2.7 -5 1 C-3 0 -3 0 0 0 Z " fill="#034E99" transform="translate(139,137)"/>
<path d="M0 0 C0.33 0.66 0.66 1.32 1 2 C0.34 2 -0.32 2 -1 2 C-1.33 3.32 -1.66 4.64 -2 6 C-3.32 6 -4.64 6 -6 6 C-5.8125 4.125 -5.8125 4.125 -5 2 C-2.4375 0.75 -2.4375 0.75 0 0 Z " fill="#819B7B" transform="translate(107,107)"/>
<path d="M0 0 C0.33 0.99 0.66 1.98 1 3 C-0.9375 5.6875 -0.9375 5.6875 -3 8 C-3 6.68 -3 5.36 -3 4 C-3.66 3.67 -4.32 3.34 -5 3 C-3.35 2.01 -1.7 1.02 0 0 Z " fill="#393C3F" transform="translate(60,32)"/>
<path d="M0 0 C-4 2 -4 2 -8 4 C-8 4.66 -8 5.32 -8 6 C-8.66 6 -9.32 6 -10 6 C-9.6875 4.125 -9.6875 4.125 -9 2 C-5.5647952 -0.29013653 -4.014669 -0.17842973 0 0 Z " fill="#94C247" transform="translate(142,25)"/>
<path d="M0 0 C0.33 0.99 0.66 1.98 1 3 C2.98 2.34 4.96 1.68 7 1 C6.67 2.32 6.34 3.64 6 5 C4.02 5 2.04 5 0 5 C0 3.35 0 1.7 0 0 Z " fill="#0F3764" transform="translate(60,147)"/>
<path d="M0 0 C0.66 0 1.32 0 2 0 C0.73058503 3.91402949 -0.51167694 5.79072873 -4 8 C-4.66 7.67 -5.32 7.34 -6 7 C-5.04882866 5.8274869 -4.08882991 4.66212985 -3.125 3.5 C-2.59132812 2.8503125 -2.05765625 2.200625 -1.5078125 1.53125 C-0.76144531 0.77328125 -0.76144531 0.77328125 0 0 Z " fill="#9BB665" transform="translate(145,87)"/>
<path d="M0 0 C0.99 0 1.98 0 3 0 C3 1.65 3 3.3 3 5 C1.35 4.67 -0.3 4.34 -2 4 C-1.34 3.67 -0.68 3.34 0 3 C0 2.01 0 1.02 0 0 Z " fill="#0B4373" transform="translate(168,141)"/>
<path d="M0 0 C0.33 0.66 0.66 1.32 1 2 C0.67 2.66 0.34 3.32 0 4 C-2.97 3.505 -2.97 3.505 -6 3 C-6 2.34 -6 1.68 -6 1 C-4.02 0.67 -2.04 0.34 0 0 Z " fill="#2C4C68" transform="translate(123,91)"/>
<path d="M0 0 C0.33 0 0.66 0 1 0 C2.25 7.625 2.25 7.625 0 11 C-0.66 11 -1.32 11 -2 11 C-1.34 7.37 -0.68 3.74 0 0 Z " fill="#8FC34B" transform="translate(131,74)"/>
<path d="M0 0 C1.98 0 3.96 0 6 0 C6.33 0.99 6.66 1.98 7 3 C4.69 3 2.38 3 0 3 C0 2.01 0 1.02 0 0 Z " fill="#083466" transform="translate(140,134)"/>
<path d="M0 0 C5.66153846 1.47692308 5.66153846 1.47692308 7.375 4.125 C7.684375 5.053125 7.684375 5.053125 8 6 C4.63408134 4.55746343 2.48952921 2.66735273 0 0 Z " fill="#464749" transform="translate(61,73)"/>
</svg>
